<?xml version="1.0" standalone="no"?>
<!DOCTYPE svg PUBLIC "-//W3C//DTD SVG 20010904//EN"
 "http://www.w3.org/TR/2001/REC-SVG-20010904/DTD/svg10.dtd">
<svg version="1.0" xmlns="http://www.w3.org/2000/svg"
 width="1607.000000pt" height="395.000000pt" viewBox="0 0 1607.000000 395.000000"
 preserveAspectRatio="xMidYMid meet">

<g transform="translate(0.000000,395.000000) scale(0.100000,-0.100000)"
fill="#000000" stroke="none">
<path d="M9365 3823 c-9 -53 -89 -217 -138 -283 -59 -81 -213 -236 -283 -286
-71 -51 -82 -55 -236 -100 -143 -41 -225 -81 -291 -142 -144 -134 -197 -329
-138 -504 21 -63 66 -139 97 -164 12 -9 11 -25 -5 -100 -31 -141 -42 -266 -26
-283 27 -28 43 -5 50 71 7 77 33 240 39 246 2 2 30 -4 62 -14 73 -21 167 -21
263 1 99 23 133 38 219 98 133 92 225 211 347 452 82 162 101 215 121 345 27
180 28 320 4 475 -20 125 -24 156 -29 210 0 9 -11 15 -26 15 -20 0 -25 -6 -30
-37z m41 -328 c16 -271 -41 -504 -182 -757 -69 -124 -127 -200 -211 -278 -78
-74 -133 -101 -271 -135 -136 -34 -212 -31 -265 10 -18 13 -18 16 14 77 22 41
67 96 129 159 94 95 167 149 328 245 58 34 110 76 171 139 76 79 92 102 130
188 43 100 46 127 13 127 -13 0 -32 -29 -70 -110 -45 -95 -63 -121 -130 -187
-53 -54 -111 -98 -186 -143 -217 -130 -353 -251 -427 -380 -19 -33 -37 -60
-41 -60 -13 0 -56 84 -79 154 -31 97 -24 180 24 281 71 150 191 233 412 287
66 16 140 41 164 55 54 31 258 227 318 306 24 31 65 96 91 145 l47 87 7 -45
c4 -25 10 -99 14 -165z"/>
<path d="M565 2079 c-156 -21 -277 -73 -363 -157 -100 -98 -137 -203 -130
-366 7 -145 30 -200 127 -297 67 -68 91 -84 201 -137 69 -33 188 -86 265 -117
399 -163 525 -271 525 -451 0 -92 -22 -152 -76 -213 -78 -87 -205 -131 -379
-131 -160 0 -302 49 -396 137 -69 64 -92 118 -99 230 -3 51 -9 96 -13 100 -13
12 -131 15 -161 4 l-28 -11 4 -113 c6 -132 27 -196 92 -284 76 -103 215 -184
375 -219 163 -35 382 -27 523 21 269 91 414 335 353 594 -50 212 -207 334
-670 521 -273 110 -368 170 -418 264 -32 60 -32 212 0 272 35 65 67 98 126
127 79 38 138 50 262 50 186 0 324 -48 407 -142 55 -62 79 -121 85 -211 3 -41
10 -81 16 -87 10 -14 141 -18 171 -7 19 7 22 108 6 195 -36 193 -204 351 -434
409 -94 24 -271 33 -371 19z"/>
<path d="M3402 2080 c-147 -19 -288 -85 -371 -176 -57 -63 -88 -123 -106 -211
-37 -175 4 -324 120 -439 69 -67 194 -137 395 -220 181 -73 309 -133 385 -177
82 -49 163 -126 189 -180 40 -85 29 -216 -24 -300 -63 -100 -185 -156 -360
-164 -193 -10 -353 39 -452 138 -65 65 -89 123 -96 232 -5 84 -6 89 -31 99
-37 14 -150 5 -162 -13 -15 -21 -3 -185 20 -257 78 -252 368 -401 736 -379
201 13 348 70 455 177 107 107 146 214 138 380 -4 81 -10 108 -35 161 -78 165
-228 268 -643 439 -96 39 -205 88 -242 107 -147 77 -202 158 -201 293 1 179
109 284 320 310 198 25 385 -24 489 -128 61 -60 85 -116 98 -227 l12 -90 87
-3 c85 -3 87 -2 99 23 9 20 9 49 0 122 -13 110 -54 209 -118 282 -76 88 -214
160 -361 190 -76 16 -257 21 -341 11z"/>
<path d="M2047 2054 c-4 -4 -7 -454 -7 -1000 0 -895 2 -992 16 -998 32 -12
161 -6 173 8 8 10 10 280 9 1002 l-3 989 -90 3 c-50 1 -94 0 -98 -4z"/>
<path d="M4739 2033 c-11 -29 -8 -128 5 -140 4 -5 134 -10 289 -13 l282 -5 3
-904 c2 -709 5 -907 15 -913 20 -13 162 -9 175 4 9 9 12 226 12 915 l0 903
289 0 c236 0 291 3 300 14 7 9 11 42 9 88 l-3 73 -683 3 -682 2 -11 -27z"/>
<path d="M6730 2040 c-7 -13 -9 -328 -8 -995 3 -854 5 -977 18 -985 9 -6 262
-10 637 -10 709 0 653 -8 653 89 0 99 49 91 -560 93 l-535 3 -3 368 -2 367
364 0 c217 0 375 4 391 10 25 10 26 12 23 87 l-3 78 -385 5 -385 5 -3 362 -2
362 539 3 c297 2 543 6 547 11 13 13 17 123 5 146 l-12 21 -634 0 c-620 0
-635 0 -645 -20z"/>
<path d="M8676 2044 c-3 -9 -6 -455 -6 -993 0 -747 3 -980 12 -989 14 -14 156
-16 178 -2 13 8 16 114 20 819 l5 810 234 -370 c173 -274 242 -374 260 -381
37 -14 93 -2 116 24 11 13 116 176 234 363 118 187 220 347 227 355 12 12 14
-113 14 -796 0 -617 3 -813 12 -822 14 -14 155 -17 176 -4 10 7 12 214 10
1003 l-3 994 -89 3 c-69 2 -92 -1 -106 -13 -9 -8 -136 -202 -281 -430 -145
-228 -266 -415 -269 -415 -3 0 -102 154 -220 342 -118 187 -241 381 -272 429
l-57 89 -95 0 c-76 0 -95 -3 -100 -16z"/>
<path d="M11402 2048 c-13 -17 -642 -1941 -642 -1966 0 -27 18 -32 105 -32 49
0 78 5 87 14 8 7 33 74 56 147 24 74 51 157 60 184 l17 50 437 3 436 2 62
-187 c34 -104 70 -194 79 -201 24 -19 171 -12 184 9 7 12 -72 264 -308 985
-174 533 -321 977 -326 987 -8 15 -25 17 -123 17 -79 0 -117 -4 -124 -12z
m318 -838 c103 -322 185 -588 183 -592 -6 -10 -750 -10 -757 0 -3 6 344 1125
370 1192 8 19 -12 79 204 -600z"/>
<path d="M12737 2053 c-12 -12 -8 -148 5 -161 9 -9 87 -12 290 -12 l278 0 0
-903 c0 -689 3 -906 12 -915 16 -16 160 -16 176 0 9 9 12 226 12 915 l0 903
288 0 c158 0 293 4 301 9 18 12 26 107 12 144 l-11 27 -678 0 c-373 0 -682 -3
-685 -7z"/>
<path d="M14727 2053 c-4 -3 -7 -450 -7 -993 0 -753 3 -989 12 -998 9 -9 165
-12 639 -12 526 0 628 2 638 14 7 9 11 42 9 88 l-3 73 -545 5 -545 5 -3 368
-2 367 364 0 c217 0 375 4 391 10 25 10 26 12 23 87 l-3 78 -385 5 -385 5 -3
363 -2 362 524 0 c323 0 535 4 551 10 25 10 26 12 23 87 l-3 78 -641 3 c-352
1 -644 -1 -647 -5z"/>
</g>
</svg>
